<?xml version="1.0" encoding="UTF-8"?>
<svg version="1.1" xmlns="http://www.w3.org/2000/svg" width="500" height="500">
<path d="M0 0 C1.86893921 -0.00773437 1.86893921 -0.00773437 3.77563477 -0.015625 C11.46894676 0.04157814 18.87872853 0.71353268 26.47460938 1.83105469 C29.31496884 2.24855535 32.14430759 2.58667386 35 2.875 C38.75 3.3125 38.75 3.3125 41.75 4.3125 C41.75 4.9725 41.75 5.6325 41.75 6.3125 C42.430625 6.10625 43.11125 5.9 43.8125 5.6875 C47.49705456 5.21713133 50.28117327 6.20978926 53.75 7.3125 C54.53866455 7.56273926 55.3273291 7.81297852 56.13989258 8.07080078 C58.80633906 8.92914791 61.46604199 9.80624535 64.125 10.6875 C65.01960938 10.97882812 65.91421875 11.27015625 66.8359375 11.5703125 C72.64634936 13.49585597 78.20963186 15.71355918 83.75 18.3125 C84.49137207 18.65893555 85.23274414 19.00537109 85.99658203 19.36230469 C88.96340348 20.75701397 91.92349157 22.1656305 94.8828125 23.57617188 C95.59953125 23.91583984 96.31625 24.25550781 97.0546875 24.60546875 C97.69390137 24.9099292 98.33311523 25.21438965 98.99169922 25.52807617 C100.92689678 26.42575501 100.92689678 26.42575501 103.75 27.3125 C103.75 27.9725 103.75 28.6325 103.75 29.3125 C104.48605469 29.59351562 105.22210938 29.87453125 105.98046875 30.1640625 C125.68603711 38.33534191 145.74665291 56.36583128 159.75 72.3125 C159.75 72.9725 159.75 73.6325 159.75 74.3125 C160.41 74.3125 161.07 74.3125 161.75 74.3125 C163.54250007 76.37960866 165.21827232 78.45271524 166.875 80.625 C167.36709961 81.26219971 167.85919922 81.89939941 168.36621094 82.5559082 C192.75 114.26514593 192.75 114.26514593 192.75 122.3125 C193.41 122.3125 194.07 122.3125 194.75 122.3125 C196.02529753 125.45654137 197.29439329 128.60305218 198.5625 131.75 C198.91892578 132.62849609 199.27535156 133.50699219 199.64257812 134.41210938 C201.88563761 139.98889029 203.90776585 145.59187817 205.75 151.3125 C206.16121094 152.53710938 206.57242187 153.76171875 206.99609375 155.0234375 C212.40601629 171.66116649 215.89914785 188.29590252 215.91796875 205.828125 C215.92129715 206.92034363 215.92462555 208.01256226 215.92805481 209.13787842 C215.93309848 211.44071026 215.93546393 213.74354936 215.93530273 216.04638672 C215.93748441 219.53755982 215.95565464 223.02841413 215.97460938 226.51953125 C215.97754493 228.7682281 215.97952864 231.01692643 215.98046875 233.265625 C215.98765427 234.29415588 215.99483978 235.32268677 216.00224304 236.38238525 C215.98010684 243.536544 215.10653111 250.29479568 213.75 257.3125 C213.57913879 258.23383728 213.40827759 259.15517456 213.23223877 260.10443115 C211.20368053 271.00935099 209.06771241 281.67426949 204.88671875 291.984375 C203.53228608 295.34482561 202.20875042 298.71320803 200.92578125 302.1015625 C194.50600615 318.88184583 185.98392566 333.59320749 175.75 348.3125 C175.35828613 348.88000977 174.96657227 349.44751953 174.56298828 350.03222656 C169.82899585 356.86152695 169.82899585 356.86152695 167.75 359.3125 C167.09 359.3125 166.43 359.3125 165.75 359.3125 C165.54246094 359.83457031 165.33492188 360.35664063 165.12109375 360.89453125 C163.15195465 364.36717257 160.52376784 367.08885272 157.8125 370 C157.27431641 370.59361328 156.73613281 371.18722656 156.18164062 371.79882812 C152.12246308 376.18834564 152.12246308 376.18834564 148.75 377.3125 C148.0697633 378.63896156 147.40508135 379.97343665 146.75 381.3125 C144.875 383.234375 144.875 383.234375 142.75 385.0625 C142.04875 385.67609375 141.3475 386.2896875 140.625 386.921875 C138.75 388.3125 138.75 388.3125 136.75 388.3125 C136.75 388.9725 136.75 389.6325 136.75 390.3125 C135.26879883 391.609375 135.26879883 391.609375 133.20703125 393.0625 C132.46259766 393.5884375 131.71816406 394.114375 130.95117188 394.65625 C129.7687793 395.47609375 129.7687793 395.47609375 128.5625 396.3125 C127.40911133 397.13234375 127.40911133 397.13234375 126.23242188 397.96875 C122.53028919 400.56183178 119.09726795 402.91858643 114.75 404.3125 C114.75 404.9725 114.75 405.6325 114.75 406.3125 C99.98783696 414.14686894 85.41576319 421.44037865 69.75 427.3125 C68.97269531 427.61285156 68.19539063 427.91320312 67.39453125 428.22265625 C63.23281458 429.82455493 59.05079834 431.15188403 54.75 432.3125 C53.43926514 432.67009399 53.43926514 432.67009399 52.10205078 433.03491211 C34.00090643 437.73629927 16.41262706 438.92079249 -2.25 438.9375 C-3.31730347 438.94412659 -4.38460693 438.95075317 -5.48425293 438.95758057 C-24.6907337 439.02801638 -43.1288593 436.55966151 -61.6875 431.5625 C-62.53763672 431.34207031 -63.38777344 431.12164062 -64.26367188 430.89453125 C-66.26126256 430.37538339 -68.25603122 429.84538979 -70.25 429.3125 C-70.25 428.6525 -70.25 427.9925 -70.25 427.3125 C-71.57 427.6425 -72.89 427.9725 -74.25 428.3125 C-74.25 427.6525 -74.25 426.9925 -74.25 426.3125 C-75.136875 426.168125 -76.02375 426.02375 -76.9375 425.875 C-79.72117646 425.40230022 -82.48483757 424.88179815 -85.25 424.3125 C-85.25 423.6525 -85.25 422.9925 -85.25 422.3125 C-85.96542969 422.19003906 -86.68085938 422.06757813 -87.41796875 421.94140625 C-90.30112713 421.30114625 -92.83592473 420.37698444 -95.5625 419.25 C-96.44550781 418.88777344 -97.32851562 418.52554687 -98.23828125 418.15234375 C-98.90214844 417.87519531 -99.56601563 417.59804688 -100.25 417.3125 C-100.25 416.6525 -100.25 415.9925 -100.25 415.3125 C-100.83426758 415.18560791 -101.41853516 415.05871582 -102.02050781 414.92797852 C-104.20760107 414.32420474 -105.933497 413.5447387 -107.921875 412.46484375 C-108.58574219 412.10712891 -109.24960938 411.74941406 -109.93359375 411.38085938 C-110.95646484 410.82108398 -110.95646484 410.82108398 -112 410.25 C-112.69738281 409.87294922 -113.39476562 409.49589844 -114.11328125 409.10742188 C-115.82768302 408.17976612 -117.53913661 407.24666546 -119.25 406.3125 C-119.25 405.6525 -119.25 404.9925 -119.25 404.3125 C-119.80429688 404.22097656 -120.35859375 404.12945312 -120.9296875 404.03515625 C-123.89860604 403.11049307 -125.8819468 401.60707024 -128.375 399.75 C-129.33792969 399.03328125 -130.30085938 398.3165625 -131.29296875 397.578125 C-134.92471318 394.79554671 -138.50725474 391.9585847 -142.05859375 389.07421875 C-143.51383568 387.90431838 -145.00733785 386.78042161 -146.53515625 385.70703125 C-147.38400391 385.01673828 -147.38400391 385.01673828 -148.25 384.3125 C-148.25 383.6525 -148.25 382.9925 -148.25 382.3125 C-148.84425781 382.03277344 -149.43851562 381.75304687 -150.05078125 381.46484375 C-156.8669371 377.89332336 -161.38839604 371.86338426 -166.09375 365.94140625 C-167.90905613 363.72817975 -169.75114304 361.72870822 -171.8125 359.75 C-172.616875 358.945625 -173.42125 358.14125 -174.25 357.3125 C-174.25 356.6525 -174.25 355.9925 -174.25 355.3125 C-174.91 355.3125 -175.57 355.3125 -176.25 355.3125 C-179.25 350.92788462 -179.25 350.92788462 -179.25 348.3125 C-179.91 348.3125 -180.57 348.3125 -181.25 348.3125 C-182.88863397 345.88116946 -184.39921334 343.46478465 -185.875 340.9375 C-186.50535156 339.88949219 -186.50535156 339.88949219 -187.1484375 338.8203125 C-190.25 333.58390828 -190.25 333.58390828 -190.25 331.3125 C-191.24 330.9825 -192.23 330.6525 -193.25 330.3125 C-194.0212086 328.66767298 -194.77919306 327.01421641 -195.44189453 325.32275391 C-196.25005287 323.31236848 -197.16655735 321.40935194 -198.15234375 319.48046875 C-198.48556641 318.82626953 -198.81878906 318.17207031 -199.16210938 317.49804688 C-199.84012904 316.17687712 -200.51979001 314.85654825 -201.20117188 313.53710938 C-205.67400436 304.73795337 -208.94897994 295.62182595 -211.8125 286.1875 C-212.26701538 284.69657837 -212.26701538 284.69657837 -212.73071289 283.17553711 C-215.17497364 274.96295331 -216.95926544 266.78217728 -218.25 258.3125 C-218.58 258.3125 -218.91 258.3125 -219.25 258.3125 C-220.82494494 246.43852729 -221.57053082 234.77585598 -221.51074219 222.79858398 C-221.49999007 220.24764341 -221.51073542 217.69740436 -221.5234375 215.14648438 C-221.53083657 207.04849192 -221.28654968 199.05339256 -220.359375 191.00390625 C-220.28189026 190.3285936 -220.20440552 189.65328094 -220.12457275 188.95750427 C-219.56213344 184.59448918 -218.51958958 180.51797684 -217.25 176.3125 C-216.85327475 174.70910766 -216.46908384 173.10252473 -216.1015625 171.4921875 C-215.90264404 170.63262451 -215.70372559 169.77306152 -215.4987793 168.88745117 C-215.29293213 167.99646729 -215.08708496 167.1054834 -214.875 166.1875 C-212.98507346 158.10850563 -210.86638516 150.19088883 -208.25 142.3125 C-207.59 142.3125 -206.93 142.3125 -206.25 142.3125 C-206.188125 141.36375 -206.12625 140.415 -206.0625 139.4375 C-205.44941418 135.2701734 -203.78673801 132.00632004 -201.828125 128.30859375 C-200.64612945 126.06455764 -199.51855989 123.82029643 -198.421875 121.53515625 C-189.59707399 103.22507476 -177.26204909 85.141395 -163.25 70.3125 C-162.59 70.3125 -161.93 70.3125 -161.25 70.3125 C-161.25 69.6525 -161.25 68.9925 -161.25 68.3125 C-160.59 68.3125 -159.93 68.3125 -159.25 68.3125 C-158.981875 67.673125 -158.71375 67.03375 -158.4375 66.375 C-157.25 64.3125 -157.25 64.3125 -154.25 63.3125 C-154.25 62.6525 -154.25 61.9925 -154.25 61.3125 C-152.67578125 59.7265625 -152.67578125 59.7265625 -150.5625 57.9375 C-149.47001953 57.01130859 -149.47001953 57.01130859 -148.35546875 56.06640625 C-147.66066406 55.48761719 -146.96585937 54.90882812 -146.25 54.3125 C-145.30125 53.508125 -144.3525 52.70375 -143.375 51.875 C-141.25 50.3125 -141.25 50.3125 -139.25 50.3125 C-139.25 49.6525 -139.25 48.9925 -139.25 48.3125 C-137.69970703 46.95898437 -137.69970703 46.95898437 -135.5078125 45.40625 C-134.69771729 44.83197266 -133.88762207 44.25769531 -133.05297852 43.66601562 C-132.16924561 43.05435547 -131.2855127 42.44269531 -130.375 41.8125 C-129.47257568 41.18537109 -128.57015137 40.55824219 -127.64038086 39.91210938 C-115.21104933 31.4020539 -102.10165716 24.23916466 -88.25 18.3125 C-86.60451172 17.59513672 -86.60451172 17.59513672 -84.92578125 16.86328125 C-77.16939771 13.61225581 -69.28901643 10.96938967 -61.25 8.5 C-59.78071045 8.04669312 -59.78071045 8.04669312 -58.28173828 7.58422852 C-53.26811975 6.07928225 -48.45762612 4.86942668 -43.25 4.3125 C-43.25 3.9825 -43.25 3.6525 -43.25 3.3125 C-28.81453693 1.31136907 -14.56448637 0.01423616 0 0 Z M-62.25 24.3125 C-63.6114917 24.69994385 -63.6114917 24.69994385 -65.00048828 25.09521484 C-76.05661095 28.31479572 -86.12323262 32.87112555 -96.25 38.3125 C-97.25804687 38.83972656 -98.26609375 39.36695312 -99.3046875 39.91015625 C-105.83859742 43.38071747 -112.06159526 47.2630712 -118.25 51.3125 C-119.09175781 51.85261719 -119.93351562 52.39273438 -120.80078125 52.94921875 C-124.69348161 55.47851833 -128.06006176 57.91675929 -131.25 61.3125 C-132.4494842 62.38497999 -133.65915379 63.44610547 -134.875 64.5 C-135.56980469 65.10714844 -136.26460938 65.71429688 -136.98046875 66.33984375 C-138.53865153 67.69420228 -140.10418348 69.04013778 -141.67578125 70.37890625 C-147.13970077 75.12903224 -151.78103378 80.12800998 -156.2421875 85.83203125 C-158.12491374 88.15796737 -160.10946744 90.22604405 -162.25 92.3125 C-166.28373925 97.04171154 -169.77201157 102.1688083 -173.25 107.3125 C-173.61899414 107.84681641 -173.98798828 108.38113281 -174.36816406 108.93164062 C-187.33040991 127.85068168 -195.35989205 149.26833363 -201.25 171.3125 C-201.46237305 172.06982422 -201.67474609 172.82714844 -201.89355469 173.60742188 C-209.53550518 201.15833639 -209.24817175 232.45953711 -203.25 260.3125 C-203.11223145 260.96412109 -202.97446289 261.61574219 -202.83251953 262.28710938 C-199.28179336 278.65739373 -193.88067371 294.44449848 -186.6875 309.5625 C-186.24075928 310.50230713 -185.79401855 311.44211426 -185.33374023 312.41040039 C-182.40587466 318.38636694 -179.03609751 323.84849558 -175.25 329.3125 C-174.32957383 330.72672696 -173.41245017 332.1431139 -172.5 333.5625 C-164.58069983 345.41043472 -155.45266374 356.36490285 -145.25 366.3125 C-144.51394531 367.07046875 -143.77789062 367.8284375 -143.01953125 368.609375 C-142.20871094 369.43953125 -141.39789063 370.2696875 -140.5625 371.125 C-139.79550781 371.91519531 -139.02851563 372.70539063 -138.23828125 373.51953125 C-136.4486717 375.53572996 -136.4486717 375.53572996 -134.25 375.3125 C-134.25 375.9725 -134.25 376.6325 -134.25 377.3125 C-132.11531411 379.12219097 -132.11531411 379.12219097 -129.375 381 C-128.36179687 381.71671875 -127.34859375 382.4334375 -126.3046875 383.171875 C-125.29664062 383.87828125 -124.28859375 384.5846875 -123.25 385.3125 C-122.44820313 385.89515625 -121.64640625 386.4778125 -120.8203125 387.078125 C-78.38865386 417.65177803 -23.67881181 430.82348566 28.13232422 422.76660156 C48.98768807 419.14871528 68.40952751 413.9856525 87.1640625 404.14453125 C90.62007873 402.33888113 94.14932979 400.80737979 97.75 399.3125 C97.75 398.6525 97.75 397.9925 97.75 397.3125 C98.801875 396.92191406 98.801875 396.92191406 99.875 396.5234375 C102.99609039 395.2088478 105.82617345 393.64555174 108.75 391.9375 C109.760625 391.35226562 110.77125 390.76703125 111.8125 390.1640625 C114.63925394 388.38230536 117.16413334 386.42249537 119.75 384.3125 C120.41 383.9825 121.07 383.6525 121.75 383.3125 C121.75 382.6525 121.75 381.9925 121.75 381.3125 C122.49113037 381.05581543 123.23226074 380.79913086 123.99584961 380.53466797 C126.87158433 379.25854635 128.55886284 377.92586919 130.81640625 375.7578125 C131.54923828 375.06042969 132.28207031 374.36304688 133.03710938 373.64453125 C133.78798828 372.91621094 134.53886719 372.18789063 135.3125 371.4375 C136.06724609 370.71691406 136.82199219 369.99632812 137.59960938 369.25390625 C139.65943516 367.28300686 141.71100696 365.30493599 143.75 363.3125 C144.49113037 362.61495605 145.23226074 361.91741211 145.99584961 361.19873047 C147.97700116 359.4977119 147.97700116 359.4977119 147.75 357.3125 C148.41 357.3125 149.07 357.3125 149.75 357.3125 C152.95808965 353.82209846 155.822811 350.03982046 158.75 346.3125 C159.29269531 345.63445312 159.83539063 344.95640625 160.39453125 344.2578125 C165.04404804 338.28901133 168.88733327 331.80631152 172.75 325.3125 C173.41257812 324.20648438 174.07515625 323.10046875 174.7578125 321.9609375 C201.88356819 275.68758956 208.64144944 220.3235795 195.75 168.3125 C193.36775378 159.42555251 190.37299248 150.77044686 186.75 142.3125 C186.27433594 141.178125 185.79867188 140.04375 185.30859375 138.875 C182.65526502 132.57805692 179.90319942 126.37634505 176.75 120.3125 C176.09 120.3125 175.43 120.3125 174.75 120.3125 C174.46769531 119.58675781 174.18539063 118.86101562 173.89453125 118.11328125 C166.63353562 100.34490627 152.1694074 85.6883379 138.75 72.3125 C138.234375 71.76207031 137.71875 71.21164063 137.1875 70.64453125 C131.65370597 64.79495006 125.20463693 60.08174836 118.75 55.3125 C117.49509766 54.38244141 117.49509766 54.38244141 116.21484375 53.43359375 C103.82263164 44.51699372 90.67659451 37.48417241 76.75 31.3125 C75.8940625 30.92449219 75.038125 30.53648438 74.15625 30.13671875 C65.34087465 26.36535218 55.96780854 23.88906127 46.75 21.3125 C45.6676709 21.0021582 45.6676709 21.0021582 44.56347656 20.68554688 C10.07990733 11.02031844 -28.31366099 14.55995172 -62.25 24.3125 Z " fill="#ffffff" transform="translate(252.25,29.6875)"/>
<path d="M0 0 C0.86370712 -0.00095673 1.72741425 -0.00191345 2.61729431 -0.00289917 C4.43342156 -0.0035763 6.2495513 -0.00175474 8.06567383 0.00244141 C10.83485372 0.00780284 13.60387193 0.00247717 16.37304688 -0.00390625 C18.14453161 -0.00324551 19.91601624 -0.00196444 21.6875 0 C22.50952408 -0.00202423 23.33154816 -0.00404846 24.17848206 -0.00613403 C28.49030808 0.01134072 32.53077189 0.27420436 36.77734375 1.1328125 C36.77734375 1.7928125 36.77734375 2.4528125 36.77734375 3.1328125 C38.23333984 3.05546875 38.23333984 3.05546875 39.71875 2.9765625 C44.32559301 2.98581087 48.36210946 4.21673366 52.71484375 5.6328125 C53.54459717 5.90053467 54.37435059 6.16825684 55.22924805 6.4440918 C72.73117581 12.31038892 88.82616591 22.10446162 102.77734375 34.1328125 C103.27057129 34.54837402 103.76379883 34.96393555 104.27197266 35.39208984 C129.55769203 56.8355621 146.76768438 89.21769825 150.77734375 122.1328125 C150.90110625 124.91670054 150.9869492 127.67665676 151.015625 130.4609375 C151.02532822 131.24371063 151.03503143 132.02648376 151.04502869 132.83297729 C151.06985158 135.34964155 151.08253712 137.86603827 151.08984375 140.3828125 C151.09246216 141.23840759 151.09508057 142.09400269 151.09777832 142.9755249 C151.10189084 155.48024098 150.51132239 167.11406874 146.77734375 179.1328125 C146.34421875 180.69322266 146.34421875 180.69322266 145.90234375 182.28515625 C140.01438709 201.86786924 129.98734545 218.66556779 116.77734375 234.1328125 C115.79708932 235.36111185 114.81770154 236.59010431 113.83984375 237.8203125 C113.15921875 238.5834375 112.47859375 239.3465625 111.77734375 240.1328125 C111.11734375 240.1328125 110.45734375 240.1328125 109.77734375 240.1328125 C109.77734375 240.7928125 109.77734375 241.4528125 109.77734375 242.1328125 C88.9757308 264.21923096 55.082527 280.05352486 24.85009766 281.29394531 C23.48476794 281.31343935 22.11934735 281.32722676 20.75390625 281.3359375 C20.01447784 281.34295181 19.27504944 281.34996613 18.51321411 281.35719299 C16.14286128 281.374588 13.77275804 281.38104407 11.40234375 281.3828125 C10.59365845 281.38348724 9.78497314 281.38416199 8.95178223 281.38485718 C-2.69940303 281.36938281 -13.8865762 281.07310826 -25.22265625 278.1328125 C-25.89554687 277.96120605 -26.5684375 277.78959961 -27.26171875 277.61279297 C-37.25305612 274.99568002 -46.15388334 271.04838326 -55.22265625 266.1328125 C-56.05410156 265.6996875 -56.88554687 265.2665625 -57.7421875 264.8203125 C-66.24959747 260.29097339 -73.88767794 254.50674165 -81.41015625 248.515625 C-83.17910226 247.0766848 -83.17910226 247.0766848 -85.22265625 246.1328125 C-85.22265625 245.4728125 -85.22265625 244.8128125 -85.22265625 244.1328125 C-85.88265625 244.1328125 -86.54265625 244.1328125 -87.22265625 244.1328125 C-88.58984375 242.77734375 -88.58984375 242.77734375 -90.09765625 240.9453125 C-90.63003906 240.30335938 -91.16242188 239.66140625 -91.7109375 239 C-93.55800786 236.71860561 -95.39613057 234.43069964 -97.22265625 232.1328125 C-98.00640625 231.1840625 -98.79015625 230.2353125 -99.59765625 229.2578125 C-100.02175781 228.7421875 -100.44585937 228.2265625 -100.8828125 227.6953125 C-102.19109546 226.13005467 -102.19109546 226.13005467 -103.59375 224.7578125 C-108.5722349 219.57695016 -111.32504856 213.28659265 -114.390625 206.875 C-115.8408148 203.84737115 -117.49154399 201.0100074 -119.22265625 198.1328125 C-135.63140875 163.93908954 -132.70429775 123.18946381 -121.22265625 88.1328125 C-120.56265625 88.1328125 -119.90265625 88.1328125 -119.22265625 88.1328125 C-119.14144531 87.47925781 -119.06023437 86.82570313 -118.9765625 86.15234375 C-117.95285532 82.05221086 -116.09526639 78.56018857 -114.16015625 74.8203125 C-113.78310547 74.07974609 -113.40605469 73.33917969 -113.01757812 72.57617188 C-112.09137468 70.75893728 -111.15774996 68.94548846 -110.22265625 67.1328125 C-109.56265625 67.1328125 -108.90265625 67.1328125 -108.22265625 67.1328125 C-107.95195312 66.400625 -107.68125 65.6684375 -107.40234375 64.9140625 C-100.43545103 48.48880549 -82.53976959 32.59457237 -67.69921875 23.6484375 C-65.62975038 22.38194897 -63.75780219 21.05702707 -61.84765625 19.5703125 C-56.49623056 15.65463517 -48.9204785 11.1328125 -42.22265625 11.1328125 C-42.22265625 10.4728125 -42.22265625 9.8128125 -42.22265625 9.1328125 C-39.01852551 8.11899498 -35.80876595 7.1242817 -32.59765625 6.1328125 C-31.69402344 5.84664063 -30.79039062 5.56046875 -29.859375 5.265625 C-25.18996555 3.83412721 -21.16830177 2.73847532 -16.22265625 3.1328125 C-16.22265625 2.4728125 -16.22265625 1.8128125 -16.22265625 1.1328125 C-10.77173612 0.2160565 -5.52179276 -0.01363096 0 0 Z M-85.22265625 48.1328125 C-85.22265625 48.7928125 -85.22265625 49.4528125 -85.22265625 50.1328125 C-85.88265625 50.1328125 -86.54265625 50.1328125 -87.22265625 50.1328125 C-89.04113332 52.19857832 -90.73585077 54.26680638 -92.41015625 56.4453125 C-92.90483398 57.0846875 -93.39951172 57.7240625 -93.90917969 58.3828125 C-116.84100166 88.36022361 -125.8450446 124.04126481 -121.03515625 161.3203125 C-117.4042781 186.74086863 -105.98780943 209.79853958 -89.22265625 229.1328125 C-88.36641488 230.21450678 -87.51185483 231.29753772 -86.66015625 232.3828125 C-72.555518 248.2957377 -53.88614265 258.81362589 -34.22265625 266.1328125 C-33.289375 266.51308594 -32.35609375 266.89335937 -31.39453125 267.28515625 C-19.96165646 271.82065298 -7.46070951 273.59413615 4.77734375 274.1328125 C5.70417969 274.1740625 6.63101563 274.2153125 7.5859375 274.2578125 C31.35977572 274.77393382 57.59378494 268.93675762 77.77734375 256.1328125 C78.74671875 255.52695312 79.71609375 254.92109375 80.71484375 254.296875 C105.70530138 238.16782964 123.80199633 216.71949655 134.77734375 189.1328125 C135.23367188 187.99585938 135.69 186.85890625 136.16015625 185.6875 C143.6151042 166.09036137 146.02192104 143.93950451 142.32421875 123.27734375 C141.97418752 121.26466419 141.68669908 119.23948541 141.48046875 117.20703125 C139.86154582 102.34763151 133.71233722 86.74791134 125.77734375 74.1328125 C125.1225 73.03066406 124.46765625 71.92851562 123.79296875 70.79296875 C107.53478924 43.94806769 80.65104171 23.55321157 50.77734375 14.1328125 C49.19953125 13.61074219 49.19953125 13.61074219 47.58984375 13.078125 C1.81626445 -1.1741031 -52.23115716 13.35107702 -85.22265625 48.1328125 Z " fill="#ffffff" transform="translate(239.22265625,108.8671875)"/>
<path d="M0 0 C0.99 0.33 1.98 0.66 3 1 C2.88557539 2.60495567 2.75805306 4.20898119 2.625 5.8125 C2.55539062 6.70582031 2.48578125 7.59914062 2.4140625 8.51953125 C2 11 2 11 0 14 C-0.61232516 15.646404 -1.17271345 17.31245894 -1.69921875 18.98828125 C-2.01785889 19.99366943 -2.33649902 20.99905762 -2.66479492 22.03491211 C-3.0022876 23.11651611 -3.33978027 24.19812012 -3.6875 25.3125 C-4.40618765 27.5911655 -5.12493884 29.86981096 -5.84375 32.1484375 C-6.2046875 33.29795898 -6.565625 34.44748047 -6.9375 35.63183594 C-7.91483646 38.73002846 -8.90638091 41.82308063 -9.90625 44.9140625 C-12.93450011 54.29115606 -15.84048487 63.67688635 -18.40307617 73.19311523 C-19.47670142 77.17958183 -20.68305839 81.08807218 -22 85 C-22.495 86.98 -22.495 86.98 -23 89 C-7.82 89 7.36 89 23 89 C21.95733986 94.21330072 21.29259141 95.15864336 18 99 C16.97972799 100.34151983 15.97030401 101.69132345 14.96875 103.046875 C14.41171387 103.80057373 13.85467773 104.55427246 13.28076172 105.33081055 C12.69311035 106.12914307 12.10545898 106.92747559 11.5 107.75 C10.8827002 108.58764893 10.26540039 109.42529785 9.62939453 110.28833008 C5.64662355 115.71060143 1.73409964 121.17670315 -2.125 126.6875 C-6.96138231 133.59203519 -11.96757069 140.35102799 -17.046875 147.078125 C-23.51597913 155.64947433 -29.86403266 164.30882378 -35.984375 173.1328125 C-40.41632107 179.43716989 -44.95273728 185.66940587 -49.49316406 191.89599609 C-50.48699689 193.28369074 -51.45847314 194.68770971 -52.40527344 196.10791016 C-53.53399112 197.78747921 -54.75924302 199.40141378 -56 201 C-56.99 201 -57.98 201 -59 201 C-58.38738523 194.59742854 -56.94585409 188.72231617 -55.125 182.5625 C-54.86847656 181.67240234 -54.61195313 180.78230469 -54.34765625 179.86523438 C-52.93599128 175.00953249 -51.4190159 170.20411032 -49.79931641 165.41430664 C-48.15551471 160.44926235 -46.65354859 155.43895785 -45.125 150.4375 C-41.09639463 137.28135331 -41.09639463 137.28135331 -39.3671875 131.81640625 C-39.13241699 131.07398682 -38.89764648 130.33156738 -38.65576172 129.56665039 C-38.04361695 127.63745999 -37.42818422 125.70931374 -36.8125 123.78125 C-35.90652863 121.16295701 -35.90652863 121.16295701 -36 119 C-50.19 118.67 -64.38 118.34 -79 118 C-79 116.68 -79 115.36 -79 114 C-78.34 114 -77.68 114 -77 114 C-76.7421875 113.29488281 -76.484375 112.58976562 -76.21875 111.86328125 C-74.89669814 108.75730685 -73.30252146 106.04021935 -71.5 103.1875 C-70.8915625 102.21167969 -70.283125 101.23585938 -69.65625 100.23046875 C-69.1096875 99.49441406 -68.563125 98.75835937 -68 98 C-67.34 98 -66.68 98 -66 98 C-65.72671875 97.26628174 -65.4534375 96.53256348 -65.171875 95.77661133 C-63.32351064 91.39714302 -60.6365459 87.62677318 -58 83.6875 C-57.4534375 82.85154297 -56.906875 82.01558594 -56.34375 81.15429688 C-55.8178125 80.36474609 -55.291875 79.57519531 -54.75 78.76171875 C-54.27046875 78.03944092 -53.7909375 77.31716309 -53.296875 76.57299805 C-52.86890625 76.05390869 -52.4409375 75.53481934 -52 75 C-51.34 75 -50.68 75 -50 75 C-49.7421875 74.29488281 -49.484375 73.58976562 -49.21875 72.86328125 C-47.89669814 69.75730685 -46.30252146 67.04021935 -44.5 64.1875 C-43.8915625 63.21167969 -43.283125 62.23585937 -42.65625 61.23046875 C-42.1096875 60.49441406 -41.563125 59.75835937 -41 59 C-40.34 59 -39.68 59 -39 59 C-38.73960937 58.28328125 -38.47921875 57.5665625 -38.2109375 56.828125 C-33.62717245 46.12281565 -25.07141352 36.37573929 -18.34521484 26.89599609 C-12.75709445 19.01989029 -7.33143568 11.0523063 -2 3 C-1.34 2.01 -0.68 1.02 0 0 Z " fill="#ffffff" transform="translate(282,149)"/>
<path d="M0 0 C2.75143666 1.6863644 3.85651507 2.40378 4.62890625 5.61328125 C4.75136719 6.40089844 4.87382812 7.18851562 5 8 C2.54429825 9.33838733 0.08570084 10.67086232 -2.375 12 C-3.07367188 12.3815625 -3.77234375 12.763125 -4.4921875 13.15625 C-9.7734375 16 -9.7734375 16 -12 16 C-11.505 18.475 -11.505 18.475 -11 21 C-10.11957031 20.65066406 -9.23914063 20.30132812 -8.33203125 19.94140625 C-7.17058594 19.48636719 -6.00914062 19.03132813 -4.8125 18.5625 C-3.66394531 18.11003906 -2.51539063 17.65757813 -1.33203125 17.19140625 C1.47123233 16.18906699 4.07112576 15.47987205 7 15 C7.99 17.31 8.98 19.62 10 22 C7.71070947 23.17154293 5.41881638 24.33738074 3.125 25.5 C2.47402344 25.83386719 1.82304687 26.16773437 1.15234375 26.51171875 C-3.7734375 29 -3.7734375 29 -6 29 C-5.62746094 29.81984375 -5.25492187 30.6396875 -4.87109375 31.484375 C-4.39800781 32.56203125 -3.92492187 33.6396875 -3.4375 34.75 C-2.96183594 35.81734375 -2.48617187 36.8846875 -1.99609375 37.984375 C-1 41 -1 41 -1.0859375 43.265625 C-2.35774193 45.67879238 -3.65951014 46.05147449 -6.1875 47 C-9.21311676 48.19873881 -11.68261717 49.37740187 -14.25 51.375 C-17 53 -17 53 -19.6875 52.3125 C-20.450625 51.879375 -21.21375 51.44625 -22 51 C-23.485 50.505 -23.485 50.505 -25 50 C-28.85885198 52.10319417 -32.11096546 54.68872195 -35 58 C-35.33438511 60.13920975 -35.33438511 60.13920975 -34.75 62.1875 C-34.5025 63.445625 -34.255 64.70375 -34 66 C-35.70181682 68.51917687 -37.31379827 69.37814235 -40 71 C-41.32 71 -42.64 71 -44 71 C-44.24234375 71.73605469 -44.4846875 72.47210938 -44.734375 73.23046875 C-47.36833278 80.89933812 -49.74633604 86.34230241 -57.14453125 90.20703125 C-60.79835585 91.7685605 -64.12496667 92.5797559 -67.99609375 91.3828125 C-69.69784399 90.6637631 -71.35438262 89.8396007 -73 89 C-72.37240135 86.07120629 -71.41377341 83.63904371 -70 81 C-70.99 81.495 -70.99 81.495 -72 82 C-77.58159184 82.65665786 -80.32623207 81.5794364 -84.6171875 78.2890625 C-87.16594763 75.91309967 -87.24011085 73.72647654 -87.375 70.375 C-87.30211969 64.763216 -85.71638929 61.17051167 -82 57 C-76.61150327 52.26000944 -72.17239276 50.62250564 -65 51 C-62.5625 52 -62.5625 52 -61 53 C-61.5770716 56.89523329 -63.19480124 59.27061743 -66 62 C-67.99956611 62.04165763 -70.00043389 62.04165763 -72 62 C-74.45952223 63.62580082 -74.45952223 63.62580082 -76 66 C-76 67.32 -76 68.64 -76 70 C-71.30234629 68.71882171 -68.78197339 66.00472107 -65.55078125 62.55859375 C-63.07572766 60.07107137 -61.16173844 59.77585918 -57.75 59.625 C-54.11885292 59.6367323 -52.21984985 60.1492796 -49.4375 62.5 C-48.2309375 63.7375 -48.2309375 63.7375 -47 65 C-46.67 62.69 -46.34 60.38 -46 58 C-46.66 58 -47.32 58 -48 58 C-50.31 49.75 -52.62 41.5 -55 33 C-48 26 -48 26 -45 24 C-41.09598508 24.35025079 -38.28446864 26.64589237 -35.125 28.8125 C-34.11695313 29.49957031 -33.10890625 30.18664062 -32.0703125 30.89453125 C-31.05710938 31.58933594 -30.04390625 32.28414062 -29 33 C-25.44552655 35.41325292 -21.89669565 37.69271147 -18.125 39.75 C-17.34382813 40.17796875 -16.56265625 40.6059375 -15.7578125 41.046875 C-14.88769531 41.51867187 -14.88769531 41.51867187 -14 42 C-14.3609375 41.08476563 -14.721875 40.16953125 -15.09375 39.2265625 C-15.78984375 37.44378906 -15.78984375 37.44378906 -16.5 35.625 C-16.9640625 34.44164062 -17.428125 33.25828125 -17.90625 32.0390625 C-19 29 -19 29 -19 27 C-19.66 27 -20.32 27 -21 27 C-21.8709379 25.27921959 -22.72114558 23.54793677 -23.5625 21.8125 C-24.03816406 20.84957031 -24.51382813 19.88664062 -25.00390625 18.89453125 C-26 16 -26 16 -26.19140625 13.39453125 C-24.19835029 9.38881551 -20.38461844 8.47253301 -16.375 6.875 C-15.18197266 6.37419922 -15.18197266 6.37419922 -13.96484375 5.86328125 C-12.39624563 5.20647908 -10.82433755 4.55751899 -9.24902344 3.91699219 C-6.14782465 2.65254336 -3.07479358 1.32718972 0 0 Z M-41 39 C-41.40749675 43.25731568 -41.40749675 43.25731568 -39.5 46.875 C-39.005 47.24625 -38.51 47.6175 -38 48 C-35.46326712 46.6446674 -35.46326712 46.6446674 -33 45 C-33 44.34 -33 43.68 -33 43 C-34.32 42.67 -35.64 42.34 -37 42 C-37 41.34 -37 40.68 -37 40 C-38.32 39.67 -39.64 39.34 -41 39 Z M-46 67 C-45 69 -45 69 -45 69 Z M-59 71 C-63.455 74.465 -63.455 74.465 -68 78 C-66.68 79.32 -65.36 80.64 -64 82 C-61.29294488 81.85974801 -61.29294488 81.85974801 -59 81 C-59 80.34 -59 79.68 -59 79 C-58.34 79 -57.68 79 -57 79 C-56.34 77.02 -55.68 75.04 -55 73 C-56.32 72.34 -57.64 71.68 -59 71 Z M-69 79 C-68 82 -68 82 -68 82 Z " fill="#ffffff" transform="translate(177,69)"/>
<path d="M0 0 C2.475 0.99 2.475 0.99 5 2 C5 7.28 5 12.56 5 18 C8.465 17.505 8.465 17.505 12 17 C12.02578125 16.10796875 12.0515625 15.2159375 12.078125 14.296875 C12.13484375 13.12640625 12.1915625 11.9559375 12.25 10.75 C12.29640625 9.58984375 12.3428125 8.4296875 12.390625 7.234375 C13.08791275 3.53338618 14.11785184 2.32877571 17 0 C19.475 0.99 19.475 0.99 22 2 C22 7.28 22 12.56 22 18 C24.31 18 26.62 18 29 18 C29.99 18.66 30.98 19.32 32 20 C31.505 22.475 31.505 22.475 31 25 C29.68 25.33 28.36 25.66 27 26 C27.1546875 27.2375 27.1546875 27.2375 27.3125 28.5 C26.89374087 33.19010228 24.88625036 36.33533666 22 40 C21.01 40.495 21.01 40.495 20 41 C17.72111384 50.06996692 22.43091674 58.11045443 26.57421875 65.99609375 C36.5726269 82.67624681 51.15444052 94.68359059 69 102 C69.66 102.33 70.32 102.66 71 103 C70.52060632 107.71403788 70.03165952 111.66579301 68 116 C57.49793022 115.41655168 49.87558822 110.070057 41.375 104.3125 C40.28928711 103.58087646 40.28928711 103.58087646 39.18164062 102.83447266 C37.41543123 101.6107661 35.70209777 100.31141776 34 99 C34 98.34 34 97.68 34 97 C33.360625 96.731875 32.72125 96.46375 32.0625 96.1875 C30 95 30 95 29 92 C28.14341797 91.62101562 28.14341797 91.62101562 27.26953125 91.234375 C23.83917876 89.36864111 21.92372093 86.35862701 19.6875 83.25 C19.20474609 82.58258789 18.72199219 81.91517578 18.22460938 81.22753906 C10.99445205 70.99044714 5.98996549 60.25597596 3.59375 47.90625 C2.77706984 44.19977849 2.17159199 43.12154432 -1 40.875 C-1.99 40.25625 -2.98 39.6375 -4 39 C-5.375 36.25 -5.375 36.25 -6 34 C-6.66 34 -7.32 34 -8 34 C-8.4021875 32.329375 -8.4021875 32.329375 -8.8125 30.625 C-9.65809019 26.78159049 -9.65809019 26.78159049 -13 25 C-13.1875 21.375 -13.1875 21.375 -13 18 C-9.7 18 -6.4 18 -3 18 C-3.03480469 16.86820313 -3.06960937 15.73640625 -3.10546875 14.5703125 C-3.13360336 13.08855647 -3.16090387 11.60678444 -3.1875 10.125 C-3.21263672 9.37863281 -3.23777344 8.63226563 -3.26367188 7.86328125 C-3.29296875 5.6953125 -3.29296875 5.6953125 -3 2 C-2.01 1.34 -1.02 0.68 0 0 Z M17 42 C18 44 18 44 18 44 Z " fill="#ffffff" transform="translate(153,225)"/>
<path d="M0 0 C13.4124515 1.7375665 27.25162914 13.00186187 36 23 C36 23.66 36 24.32 36 25 C36.66 25 37.32 25 38 25 C39.51098102 26.92801178 40.89088041 28.84335831 42.25 30.875 C42.65186523 31.46998291 43.05373047 32.06496582 43.46777344 32.67797852 C44.65406358 34.44625368 45.82765654 36.22245995 47 38 C47.5775 38.85722656 48.155 39.71445313 48.75 40.59765625 C54.649214 49.79981559 58.43403521 60.05801411 59 71 C60.03125 71.165 61.0625 71.33 62.125 71.5 C67.81264377 73.09207878 70.33042128 78.12397912 73.140625 82.96484375 C75.11086836 87.63073826 74.81883825 92.82432646 73.0546875 97.51171875 C70.73849965 101.91830256 68.34166863 105.37214794 64 108 C63.01 108 62.02 108 61 108 C60.98582031 107.04738281 60.97164063 106.09476562 60.95703125 105.11328125 C61.08312159 97.1996583 61.08312159 97.1996583 57.4375 90.625 C56.633125 90.08875 55.82875 89.5525 55 89 C52.08482708 90.07401108 50.22189824 90.77810176 48 93 C47.69940057 95.36509361 47.50484988 97.74441881 47.375 100.125 C47.30023438 101.40632813 47.22546875 102.68765625 47.1484375 104.0078125 C47.09945312 104.99523437 47.05046875 105.98265625 47 107 C44 108 44 108 41.0625 106.5625 C36.2067526 102.49952768 34.10770494 97.82156723 33 91.625 C32.60737228 86.23104292 34.3048392 81.6262729 37 77 C38.63654821 75.62986661 40.29803595 74.2879728 42 73 C44.03343718 67.53513757 42.19213113 63.10759172 40 58 C38.25859283 54.38044698 36.46482491 50.80288693 34.62109375 47.234375 C33.26135461 44.52144968 32.07149734 41.83600292 31 39 C30.34 39 29.68 39 29 39 C27.34375 37.390625 27.34375 37.390625 25.5 35.25 C24.8915625 34.55390625 24.283125 33.8578125 23.65625 33.140625 C22 31 22 31 21.09375 28.859375 C19.55893947 26.2501971 17.80658574 26.00791254 15 25 C13.36646619 23.91808365 11.76256488 22.79039534 10.1875 21.625 C5.94081745 18.57528344 1.73946941 16.1941988 -3 14 C-2.88512252 12.41590006 -2.75765492 10.83271037 -2.625 9.25 C-2.55539062 8.36828125 -2.48578125 7.4865625 -2.4140625 6.578125 C-2.00149945 4.00933618 -1.28839043 2.24158985 0 0 Z " fill="#ffffff" transform="translate(286,161)"/>
<path d="M0 0 C3.625 0.375 3.625 0.375 6.0625 1.9375 C8.23178616 5.32158641 7.96209191 7.38269462 7.625 11.375 C6.67494338 14.14567606 5.38140622 16.67154059 4 19.25 C3.44759644 20.30815918 3.44759644 20.30815918 2.8840332 21.38769531 C-1.32812793 29.34471235 -6.0378176 36.19030749 -12.0625 42.875 C-12.53856689 43.40448242 -13.01463379 43.93396484 -13.50512695 44.47949219 C-15.77391828 46.92508807 -17.15781067 48.30260356 -20.375 49.375 C-20.705 50.365 -21.035 51.355 -21.375 52.375 C-32.8139223 62.59228982 -46.78069879 68.07831911 -61.39013672 71.85498047 C-63.33295558 72.36398467 -65.26068848 72.92950061 -67.1875 73.49609375 C-72.25723199 74.7483312 -77.30511408 74.66706385 -82.5 74.625 C-83.94439453 74.63660156 -83.94439453 74.63660156 -85.41796875 74.6484375 C-90.46621681 74.63454961 -94.64991248 74.37958258 -99.375 72.375 C-98.36953098 67.02884763 -95.51816214 62.84708658 -91.375 59.375 C-87.63089549 58.58558037 -84.15919438 59.00791695 -80.375 59.375 C-61.83505779 58.96975536 -43.93321169 50.92793756 -30.16015625 38.80859375 C-28.375 37.375 -28.375 37.375 -26.375 37.375 C-25.715 36.055 -25.055 34.735 -24.375 33.375 C-23.715 33.375 -23.055 33.375 -22.375 33.375 C-22.10945313 32.80136719 -21.84390625 32.22773438 -21.5703125 31.63671875 C-20.32141156 29.27360227 -18.86793748 27.31339459 -17.25 25.1875 C-13.40877955 19.81623366 -10.72481956 14.09317917 -8.04052734 8.08911133 C-4.63912981 0.51545887 -4.63912981 0.51545887 0 0 Z " fill="#ffffff" transform="translate(334.375,272.625)"/>
<path d="M0 0 C20.14800478 -0.26228172 20.14800478 -0.26228172 25.92578125 3.08203125 C24.74181897 8.57131093 23.39422778 11.37649022 18.92578125 15.08203125 C15.89921413 16.09088696 14.09311492 16.14788318 10.9453125 16.0390625 C-13.11992865 15.44246829 -32.92729362 20.50294707 -51.07421875 37.08203125 C-51.75484375 37.67113281 -52.43546875 38.26023438 -53.13671875 38.8671875 C-60.20875799 45.3729111 -65.45787106 53.83073624 -69.72265625 62.390625 C-71.20266026 65.33780061 -72.10850523 66.64154183 -75.07421875 68.08203125 C-78.18453954 67.95507938 -80.27499918 67.56156299 -82.94921875 65.95703125 C-84.76453948 62.9314967 -84.81441297 60.42819849 -84.07421875 57.08203125 C-80.59388716 48.98675446 -75.46001497 41.03261961 -70.07421875 34.08203125 C-69.41421875 34.08203125 -68.75421875 34.08203125 -68.07421875 34.08203125 C-67.82414062 33.49679688 -67.5740625 32.9115625 -67.31640625 32.30859375 C-65.90945734 29.78670419 -64.38709071 28.33117063 -62.19921875 26.45703125 C-61.52117187 25.86664063 -60.843125 25.27625 -60.14453125 24.66796875 C-58.18755406 23.16885038 -56.31373338 22.09634057 -54.07421875 21.08203125 C-54.07421875 20.42203125 -54.07421875 19.76203125 -54.07421875 19.08203125 C-39.5095374 7.54918153 -18.46337404 0.49266945 0 0 Z " fill="#ffffff" transform="translate(246.07421875,152.91796875)"/>
<path d="M0 0 C0.63808594 0.28230469 1.27617187 0.56460938 1.93359375 0.85546875 C7.86316117 3.5210541 11.46246721 6.91205369 14 13 C14.90281614 19.48465055 14.98880971 25.37116027 11.375 31 C10.28428046 32.36151888 9.16118848 33.69806141 8 35 C7.195625 36.010625 6.39125 37.02125 5.5625 38.0625 C0.57147892 41.89868376 -7.13176447 40.61233762 -13 40 C-15.71070397 39.26375942 -17.56528393 38.42519965 -20 37 C-20 36.34 -20 35.68 -20 35 C-20.598125 34.773125 -21.19625 34.54625 -21.8125 34.3125 C-24.74984726 32.55009164 -25.59761796 31.13866458 -27 28 C-28.59135658 21.16499306 -28.34296742 14.92376471 -24.703125 8.828125 C-19.95300563 2.11919352 -15.40695023 -0.36349251 -7.3515625 -1.77734375 C-4.26558752 -2.06953739 -2.68001559 -1.55158798 0 0 Z M-14 12 C-16.56984207 16.28307012 -16.68908029 21.14017061 -16 26 C-14.81426975 28.76922685 -14.81426975 28.76922685 -12 30 C-8.638716 30.31083974 -5.36436216 30.23113939 -2 30 C-2 29.34 -2 28.68 -2 28 C-1.34 28 -0.68 28 0 28 C2.38282072 23.13507436 3.73178977 19.540694 3 14 C0.55298846 10.64668789 -2.06692338 9.21017742 -6 8 C-9.99476331 8 -11.1421336 9.28869085 -14 12 Z " fill="#ffffff" transform="translate(306,63)"/>
<path d="M0 0 C6.74675184 2.38120653 10.86093402 7.72186803 14 14 C15.20077951 17.94541838 15.05629951 19.80920721 13.875 23.8125 C12 27 12 27 9.3125 27.9375 C8.549375 27.958125 7.78625 27.97875 7 28 C3.06765328 24.06765328 3.06765328 24.06765328 2.875 21.02734375 C2.91625 20.33769531 2.9575 19.64804688 3 18.9375 C3.40995612 14.97885147 3.40995612 14.97885147 1 12.5 C0.34 12.005 -0.32 11.51 -1 11 C-1.99 11.33 -2.98 11.66 -4 12 C-2.97977128 14.74676963 -1.89494656 17.17374222 -0.375 19.6875 C1 22 1 22 1 24 C1.66 24 2.32 24 3 24 C4.0475349 28.27743416 4.18055011 30.53684972 2.5625 34.6875 C-0.05694617 38.64358138 -3.32858904 41.02953082 -8 42 C-13.44128678 41.32890796 -18.18326118 38.93239758 -22 35 C-23.3125 32.25 -23.3125 32.25 -24 30 C-24.66 30 -25.32 30 -26 30 C-27.96153399 26.07693202 -27.34641667 21.28690635 -27 17 C-25.70138806 13.75347016 -25.09876373 12.49943806 -21.9375 11.0625 C-20.9784375 11.0315625 -20.9784375 11.0315625 -20 11 C-19.34 11.66 -18.68 12.32 -18 13 C-17.67128906 12.22076172 -17.67128906 12.22076172 -17.3359375 11.42578125 C-13.73232403 3.50076137 -9.30900595 -1.67897903 0 0 Z M-17 20 C-17.66790364 22.8715965 -17.66790364 22.8715965 -17 26 C-14.89498129 29.02230702 -14.89498129 29.02230702 -12 31 C-9.72476911 30.95502158 -9.72476911 30.95502158 -8 30 C-8.47503959 25.01208429 -9.9701136 21.9767259 -13 18 C-14.46225016 17.90754997 -14.46225016 17.90754997 -17 20 Z " fill="#ffffff" transform="translate(395,120)"/>
<path d="M0 0 C0.66 2.31 1.32 4.62 2 7 C-1.42547499 9.28364999 -4.75656137 10.13400707 -8.6875 11.125 C-9.38939453 11.30675781 -10.09128906 11.48851563 -10.81445312 11.67578125 C-12.54166268 12.12227079 -14.27066456 12.5618166 -16 13 C-16 14.32 -16 15.64 -16 17 C-13.59189383 16.53391493 -11.19355523 16.04511697 -8.8046875 15.48828125 C-7.63292969 15.21564453 -7.63292969 15.21564453 -6.4375 14.9375 C-5.69371094 14.76089844 -4.94992188 14.58429688 -4.18359375 14.40234375 C-2 14 -2 14 2 14 C3.35439668 16.70879335 3.06501451 19.00933268 3 22 C0.91891315 22.67364661 -1.1649671 23.33866798 -3.25 24 C-4.41015625 24.37125 -5.5703125 24.7425 -6.765625 25.125 C-10 26 -10 26 -14 26 C-13.67 27.98 -13.34 29.96 -13 32 C-11.90300781 31.69964844 -10.80601562 31.39929688 -9.67578125 31.08984375 C-8.22150358 30.70516385 -6.767068 30.3210806 -5.3125 29.9375 C-4.59126953 29.73833984 -3.87003906 29.53917969 -3.12695312 29.33398438 C0.85539339 28.29748323 3.99191785 27.53624533 8 29 C9.35439668 31.70879335 9.06501451 34.00933268 9 37 C2.36909358 38.8904528 -4.30199899 40.61526266 -11 42.25 C-11.7417749 42.43723633 -12.4835498 42.62447266 -13.24780273 42.81738281 C-18.65385554 44.11538149 -18.65385554 44.11538149 -22 43 C-22.7734375 41.05078125 -22.7734375 41.05078125 -23.375 38.3125 C-23.61605469 37.24773437 -23.85710937 36.18296875 -24.10546875 35.0859375 C-24.24130371 34.46041992 -24.37713867 33.83490234 -24.51708984 33.19042969 C-25.08972987 30.59299472 -25.69480157 28.00391973 -26.30078125 25.4140625 C-26.76363718 23.42201811 -27.22587258 21.42982944 -27.6875 19.4375 C-27.91421387 18.46143799 -28.14092773 17.48537598 -28.37451172 16.47973633 C-28.58479004 15.55700928 -28.79506836 14.63428223 -29.01171875 13.68359375 C-29.20209717 12.85400146 -29.39247559 12.02440918 -29.58862305 11.16967773 C-30 9 -30 9 -30 6 C-29.04480469 5.74605469 -28.08960938 5.49210937 -27.10546875 5.23046875 C-26.48454346 5.06506592 -25.86361816 4.89966309 -25.22387695 4.72924805 C-23.85944195 4.36626024 -22.49469176 4.00445528 -21.12963867 3.64379883 C-17.97298357 2.80700109 -14.82945095 1.95000453 -11.6953125 1.03125 C-10.74398437 0.7528125 -9.79265625 0.474375 -8.8125 0.1875 C-7.97332031 -0.06644531 -7.13414062 -0.32039063 -6.26953125 -0.58203125 C-3.81928058 -1.03328223 -2.33916165 -0.79047532 0 0 Z " fill="#ffffff" transform="translate(216,60)"/>
<path d="M0 0 C1.69141656 0.08963062 3.37959602 0.24577676 5.0625 0.4375 C6.44115234 0.59025391 6.44115234 0.59025391 7.84765625 0.74609375 C8.55792969 0.82988281 9.26820313 0.91367187 10 1 C12.49954384 7.55971659 14.62945422 14.03350732 16.19140625 20.8828125 C16.45824219 21.58148438 16.72507813 22.28015625 17 23 C17.99 23.33 18.98 23.66 20 24 C20.226875 22.7625 20.45375 21.525 20.6875 20.25 C22.11738639 13.77950689 24.23613373 5.76386627 29 1 C31.1640625 1.2421875 31.1640625 1.2421875 33.625 1.875 C34.44226563 2.07867187 35.25953125 2.28234375 36.1015625 2.4921875 C36.72804688 2.65976562 37.35453125 2.82734375 38 3 C37.5013553 10.06243721 34.74671605 16.13469359 32.0625 22.625 C31.60681641 23.74390625 31.15113281 24.8628125 30.68164062 26.015625 C29.83437334 28.09471718 28.98391251 30.17251303 28.12915039 32.24853516 C27.07127419 34.82632213 26.03484716 37.41288209 25 40 C20.05 40 15.1 40 10 40 C8.23405586 34.43356118 6.4736617 28.86543699 4.72216797 23.29443359 C4.15208794 21.48320571 3.57861367 19.67304617 3.00390625 17.86328125 C1.29216977 12.35556956 -0.30445214 6.73826983 -1 1 C-0.67 0.67 -0.34 0.34 0 0 Z " fill="#ffffff" transform="translate(239,55)"/>
<path d="M0 0 C5.25326533 1.56982343 8.89070471 4.96886053 13 8.4375 C18.27944199 12.91494498 18.27944199 12.91494498 24 16.78515625 C24.66 17.18605469 25.32 17.58695313 26 18 C26 18.66 26 19.32 26 20 C26.66 20 27.32 20 28 20 C27.40072174 23.35595828 26.15377564 25.37801226 24 28 C20.12867972 27.42647107 17.91827204 25.51295648 15 23 C11.77985005 24.38362065 9.98153187 25.89710887 7.80078125 28.625 C7.23166016 29.33140625 6.66253906 30.0378125 6.07617188 30.765625 C5.49416016 31.50296875 4.91214844 32.2403125 4.3125 33 C3.71888672 33.73734375 3.12527344 34.4746875 2.51367188 35.234375 C-0.5283649 38.93035303 -0.5283649 38.93035303 -3 43 C-7.21912747 42.5205537 -9.79663178 41.83374881 -13 39 C-12.39942645 35.29505331 -10.8159336 33.2328439 -8.4375 30.375 C-7.72464844 29.50875 -7.01179688 28.6425 -6.27734375 27.75 C-5.52582031 26.8425 -4.77429688 25.935 -4 25 C-2.49659001 23.12773308 -0.99641903 21.25285918 0.5 19.375 C1.66666667 17.91666667 2.83333333 16.45833333 4 15 C1.49320049 12.43438995 -1.17581093 10.2135536 -4 8 C-2.25 2.25 -2.25 2.25 0 0 Z " fill="#ffffff" transform="translate(359,89)"/>
<path d="M0 0 C2.41466913 1.20733457 4.69115369 2.60254039 7 4 C6.44880113 8.8788549 4.88107606 12.76010703 2.625 17.0625 C2.16867187 17.9606543 2.16867187 17.9606543 1.703125 18.87695312 C0.32171662 21.57188015 -1.11425704 24.18172556 -2.7265625 26.74609375 C-4.24595404 29.0038617 -4.24595404 29.0038617 -4 32 C-1.34372773 33.86171415 -1.34372773 33.86171415 1.9375 35.5625 C7.90361446 38.80722892 7.90361446 38.80722892 9 41 C7.68 42.98 6.36 44.96 5 47 C-0.64042302 45.62320383 -5.32755726 43.46941525 -10.375 40.625 C-11.09816406 40.23828125 -11.82132812 39.8515625 -12.56640625 39.453125 C-13.59701172 38.87691406 -13.59701172 38.87691406 -14.6484375 38.2890625 C-15.26895996 37.94568848 -15.88948242 37.60231445 -16.52880859 37.24853516 C-18.45444647 35.61433136 -18.72296593 34.48381514 -19 32 C-18.505 30.515 -18.505 30.515 -18 29 C-17.34 29 -16.68 29 -16 29 C-15.87544434 28.42040527 -15.75088867 27.84081055 -15.62255859 27.24365234 C-14.99309911 24.97512972 -14.15580458 23.16924439 -13.0390625 21.1015625 C-12.64976562 20.37453125 -12.26046875 19.6475 -11.859375 18.8984375 C-11.45203125 18.14820312 -11.0446875 17.39796875 -10.625 16.625 C-9.82489675 15.13835654 -9.02540612 13.65138319 -8.2265625 12.1640625 C-7.84274414 11.45540039 -7.45892578 10.74673828 -7.06347656 10.01660156 C-6.12286409 8.23297919 -5.25482125 6.411497 -4.3984375 4.5859375 C-3 2 -3 2 0 0 Z " fill="#ffffff" transform="translate(333,73)"/>
<path d="M0 0 C3.28079607 0.84836747 4.90003114 2.9118294 6.93359375 5.5 C8.36663439 8.36608129 8.2400353 10.31300783 7.93359375 13.5 C6.10880587 17.14957575 4.70406572 19.04472111 1.18359375 21.125 C-3.33843674 21.64677275 -6.3797758 20.06920308 -10.06640625 17.5 C-11.93165213 13.76950824 -11.6148864 9.56257971 -11.06640625 5.5 C-8.12702355 0.90721452 -5.26602576 -0.31854976 0 0 Z M-4.06640625 7.5 C-4.06640625 9.48 -4.06640625 11.46 -4.06640625 13.5 C-2.12037351 14.09070014 -2.12037351 14.09070014 -0.06640625 14.5 C1.28977874 13.37465895 1.28977874 13.37465895 0.99609375 10.4375 C0.97546875 9.468125 0.95484375 8.49875 0.93359375 7.5 C-0.71640625 7.5 -2.36640625 7.5 -4.06640625 7.5 Z " fill="#ffffff" transform="translate(251.06640625,412.5)"/>
<path d="M0 0 C0.53367187 0.23074219 1.06734375 0.46148437 1.6171875 0.69921875 C1.9471875 2.34921875 2.2771875 3.99921875 2.6171875 5.69921875 C0.6371875 6.68921875 0.6371875 6.68921875 -1.3828125 7.69921875 C-1.3828125 8.68921875 -1.3828125 9.67921875 -1.3828125 10.69921875 C-0.6196875 10.36921875 0.1434375 10.03921875 0.9296875 9.69921875 C3.6171875 8.69921875 3.6171875 8.69921875 6.6171875 8.69921875 C6.9471875 10.67921875 7.2771875 12.65921875 7.6171875 14.69921875 C5.82837014 15.70430676 4.03604054 16.70314611 2.2421875 17.69921875 C1.24445313 18.25609375 0.24671875 18.81296875 -0.78125 19.38671875 C-3.3828125 20.69921875 -3.3828125 20.69921875 -5.3828125 20.69921875 C-5.7128125 21.35921875 -6.0428125 22.01921875 -6.3828125 22.69921875 C-7.7028125 22.03921875 -9.0228125 21.37921875 -10.3828125 20.69921875 C-9.6328125 15.94921875 -9.6328125 15.94921875 -7.3828125 13.69921875 C-9.59363101 13.59380949 -9.59363101 13.59380949 -12.3828125 14.69921875 C-13.7028125 13.37921875 -15.0228125 12.05921875 -16.3828125 10.69921875 C-14.8734972 6.49735948 -12.28082632 5.07764976 -8.5078125 2.88671875 C-7.45851563 2.26152344 -6.40921875 1.63632812 -5.328125 0.9921875 C-2.3828125 -0.30078125 -2.3828125 -0.30078125 0 0 Z " fill="#ffffff" transform="translate(98.3828125,323.30078125)"/>
<path d="M0 0 C2.5625 2 2.5625 2 4 5 C4.07978391 8.84957372 3.73320141 12.53359717 2 16 C1.34 16 0.68 16 0 16 C0 16.66 0 17.32 0 18 C-3.14911479 19.57455739 -5.52008816 19.34799118 -9 19 C-12.4375 17 -12.4375 17 -15 14 C-15.7964988 8.98205753 -15.5555106 7.05355459 -13.1875 2.5625 C-9.46478908 -1.79838993 -5.24072394 -1.49434297 0 0 Z M-7 5 C-7.33 7.64 -7.66 10.28 -8 13 C-6.35 12.67 -4.7 12.34 -3 12 C-3 9.69 -3 7.38 -3 5 C-4.32 5 -5.64 5 -7 5 Z " fill="#ffffff" transform="translate(206,407)"/>
<path d="M0 0 C-0.15339844 0.65226562 -0.30679687 1.30453125 -0.46484375 1.9765625 C-0.9659795 4.78457932 -1.26339316 7.15365452 -1 10 C0.62209773 12.0976866 2.2407326 13.36753819 4.43359375 14.84375 C4.95050781 15.2253125 5.46742188 15.606875 6 16 C6 16.66 6 17.32 6 18 C-0.75 19.125 -0.75 19.125 -3 18 C-3.33 19.32 -3.66 20.64 -4 22 C-6.3125 22.25 -6.3125 22.25 -9 22 C-12.10452746 18.83338199 -12.79262966 15.51128735 -13.6875 11.25 C-13.93886719 10.07953125 -14.19023437 8.9090625 -14.44921875 7.703125 C-14.63097656 6.81109375 -14.81273437 5.9190625 -15 5 C-12 3 -12 3 -9 3 C-8.67 3.66 -8.34 4.32 -8 5 C-7.731875 4.360625 -7.46375 3.72125 -7.1875 3.0625 C-5.37365074 -0.08786977 -3.47812867 0 0 0 Z " fill="#ffffff" transform="translate(316,401)"/>
<path d="M0 0 C2.475 0.99 2.475 0.99 5 2 C5 2.99 5 3.98 5 5 C5.94875 5.309375 6.8975 5.61875 7.875 5.9375 C11 7 11 7 13 8 C12.67 8.99 12.34 9.98 12 11 C9.39137376 12.03131735 6.75952365 12.43057449 4 13 C3.67 16.3 3.34 19.6 3 23 C1.68 23 0.36 23 -1 23 C-3 21 -3 21 -3.125 18.375 C-3.08375 17.59125 -3.0425 16.8075 -3 16 C-4.98 16.99 -4.98 16.99 -7 18 C-7.99 17.34 -8.98 16.68 -10 16 C-9.44151174 11.81641523 -6.95553698 8.97370431 -4.4375 5.75 C-4.01275391 5.19570313 -3.58800781 4.64140625 -3.15039062 4.0703125 C-2.10601659 2.70910589 -1.05377536 1.35394167 0 0 Z " fill="#ffffff" transform="translate(139,374)"/>
<path d="M0 0 C2.1328125 1.5234375 2.1328125 1.5234375 4.125 3.375 C4.78757812 3.98085938 5.45015625 4.58671875 6.1328125 5.2109375 C6.74898438 5.80132812 7.36515625 6.39171875 8 7 C8.58136719 7.52464844 9.16273438 8.04929687 9.76171875 8.58984375 C10.17035156 9.05519531 10.57898438 9.52054687 11 10 C10.6875 12.1875 10.6875 12.1875 10 14 C8.1875 14.625 8.1875 14.625 6 15 C5.01 14.34 4.02 13.68 3 13 C2.01 13.33 1.02 13.66 0 14 C0 15.65 0 17.3 0 19 C-1.65 19.33 -3.3 19.66 -5 20 C-5.53132389 17.41842632 -6.05034379 14.83538244 -6.5625 12.25 C-6.78969727 11.15558594 -6.78969727 11.15558594 -7.02148438 10.0390625 C-7.73652863 6.38069655 -8.28276591 3.53650446 -7 0 C-4.24739325 -1.37630337 -2.92181254 -0.85833662 0 0 Z " fill="#ffffff" transform="translate(333,395)"/>
<path d="M0 0 C1.66611905 -0.042721 3.33382885 -0.04063832 5 0 C5.33 0.33 5.66 0.66 6 1 C8.18019479 1.39666227 10.3696463 1.74315237 12.5625 2.0625 C13.76003906 2.23910156 14.95757812 2.41570312 16.19140625 2.59765625 C17.11824219 2.73042969 18.04507812 2.86320312 19 3 C19.042721 4.66611905 19.04063832 6.33382885 19 8 C18 9 18 9 15.4375 9.0625 C14.633125 9.041875 13.82875 9.02125 13 9 C13.03480469 9.62648438 13.06960938 10.25296875 13.10546875 10.8984375 C13.13253906 11.71570313 13.15960938 12.53296875 13.1875 13.375 C13.22230469 14.18710937 13.25710938 14.99921875 13.29296875 15.8359375 C13.19628906 16.55007813 13.09960938 17.26421875 13 18 C12.01 18.66 11.02 19.32 10 20 C7.63526052 17.69659382 5.3079493 15.36029454 3 13 C2.46761719 12.46375 1.93523437 11.9275 1.38671875 11.375 C0 9.875 0 9.875 -2 7 C-1.87005744 4.14126361 -1.26513143 2.53026286 0 0 Z " fill="#ffffff" transform="translate(399,326)"/>
<path d="M0 0 C3.21902826 2.14601884 4.29455754 3.58911508 6 7 C6 8.66666667 6 10.33333333 6 12 C7.32 11.67 8.64 11.34 10 11 C10.66 12.32 11.32 13.64 12 15 C10.92781799 16.01194706 9.84173622 17.00918057 8.75 18 C8.14671875 18.556875 7.5434375 19.11375 6.921875 19.6875 C5 21 5 21 1 21 C-0.93549625 18.86508899 -2.58497089 16.82813664 -4.25 14.5 C-4.70890625 13.87996094 -5.1678125 13.25992187 -5.640625 12.62109375 C-6.77190761 11.08914855 -7.88748654 9.54562939 -9 8 C-3.61607143 1.33928571 -3.61607143 1.33928571 0 0 Z " fill="#ffffff" transform="translate(362,372)"/>
<path d="M0 0 C2.97917487 1.50215779 4.78463738 3.3351736 6.8515625 5.93359375 C6.6640625 8.74609375 6.6640625 8.74609375 5.8515625 10.93359375 C4.8615625 11.26359375 3.8715625 11.59359375 2.8515625 11.93359375 C1.8615625 13.41859375 1.8615625 13.41859375 0.8515625 14.93359375 C-0.7984375 14.60359375 -2.4484375 14.27359375 -4.1484375 13.93359375 C-3.4884375 15.25359375 -2.8284375 16.57359375 -2.1484375 17.93359375 C-3.4684375 18.92359375 -4.7884375 19.91359375 -6.1484375 20.93359375 C-9.05646211 18.71431181 -11.10156512 17.00390232 -13.1484375 13.93359375 C-12.98136716 9.75683527 -10.14178013 7.4598013 -7.3359375 4.62109375 C-6.46324219 3.71746094 -5.59054688 2.81382812 -4.69140625 1.8828125 C-2.1484375 -0.06640625 -2.1484375 -0.06640625 0 0 Z " fill="#ffffff" transform="translate(126.1484375,361.06640625)"/>
<path d="M0 0 C4.84521939 0.67015483 7.51814609 1.41866455 11 5 C12.05683643 7.81823049 12.25939387 9.24166274 11.28515625 12.08984375 C10 14 10 14 7.90625 14.72265625 C7.1121875 14.83480469 6.318125 14.94695312 5.5 15.0625 C3.1249587 15.35212186 3.1249587 15.35212186 1 16 C0.34 16.99 -0.32 17.98 -1 19 C-2.65 18.67 -4.3 18.34 -6 18 C-7.42600325 13.72199024 -5.45637064 11.13234078 -3.5625 7.3125 C-3.22412109 6.61060547 -2.88574219 5.90871094 -2.53710938 5.18554688 C-1.70018652 3.45276294 -0.85122607 1.72580248 0 0 Z " fill="#ffffff" transform="translate(175,397)"/>
<path d="M0 0 C0.49113281 0.53753906 0.98226562 1.07507813 1.48828125 1.62890625 C1.02026826 6.62104476 -1.42887612 10.75854618 -4.51171875 14.62890625 C-5.17171875 14.62890625 -5.83171875 14.62890625 -6.51171875 14.62890625 C-6.84171875 15.94890625 -7.17171875 17.26890625 -7.51171875 18.62890625 C-8.83171875 18.62890625 -10.15171875 18.62890625 -11.51171875 18.62890625 C-12.67009501 14.57458933 -12.34863132 12.41078506 -10.51171875 8.62890625 C-11.50171875 8.62890625 -12.49171875 8.62890625 -13.51171875 8.62890625 C-13.51171875 9.28890625 -13.51171875 9.94890625 -13.51171875 10.62890625 C-16.37896561 10.05545688 -17.37317025 9.76745475 -19.51171875 7.62890625 C-19.3527832 5.60327148 -19.3527832 5.60327148 -18.51171875 3.62890625 C-15.85450182 2.40688671 -13.47659416 1.51514226 -10.69921875 0.69140625 C-9.61157227 0.32305664 -9.61157227 0.32305664 -8.50195312 -0.05273438 C-3.13052133 -1.70888489 -3.13052133 -1.70888489 0 0 Z " fill="#ffffff" transform="translate(115.51171875,347.37109375)"/>
<path d="M0 0 C2.375 0.3125 2.375 0.3125 5 1 C7.0460668 4.06910021 7.50913306 5.80688201 8.125 9.375 C8.29257813 10.31085938 8.46015625 11.24671875 8.6328125 12.2109375 C8.97990588 14.84737023 9.06758274 17.34496388 9 20 C7.02 20 5.04 20 3 20 C2.34 18.35 1.68 16.7 1 15 C0.1646875 16.0209375 0.1646875 16.0209375 -0.6875 17.0625 C-1.450625 17.701875 -2.21375 18.34125 -3 19 C-5.75 18.75 -5.75 18.75 -8 18 C-6.10463724 11.48180123 -3.4821006 5.82185199 0 0 Z " fill="#ffffff" transform="translate(223,411)"/>
<path d="M0 0 C2.375 2.1875 2.375 2.1875 4 5 C3.8125 7.625 3.8125 7.625 3 10 C2.67 10.99 2.34 11.98 2 13 C2.66 13.66 3.32 14.32 4 15 C3.625 17.125 3.625 17.125 3 19 C1.359375 19.82421875 1.359375 19.82421875 -1 20 C-3.15481988 18.32971364 -4.88802678 16.764884 -6.75 14.8125 C-7.25660156 14.31685547 -7.76320313 13.82121094 -8.28515625 13.31054688 C-11.27873289 10.25645318 -12 9.44315505 -12 5 C-8.90301968 1.60849418 -4.647454 -1.25606865 0 0 Z M-3 6 C-2 8 -2 8 -2 8 Z " fill="#ffffff" transform="translate(381,359)"/>
<path d="M0 0 C4.77609498 1.64178265 8.79382904 4.26546702 13 7 C12.34 8.65 11.68 10.3 11 12 C9.68 11.67 8.36 11.34 7 11 C4.69 14.3 2.38 17.6 0 21 C-2.475 20.01 -2.475 20.01 -5 19 C-3.31326082 14.50202887 -1.18326108 10.27113698 1 6 C0.01 5.67 -0.98 5.34 -2 5 C-1.125 1.125 -1.125 1.125 0 0 Z " fill="#ffffff" transform="translate(156,386)"/>
<path d="M0 0 C0 1.65 0 3.3 0 5 C-1.65 5.66 -3.3 6.32 -5 7 C-5 10.96 -5 14.92 -5 19 C-8 20 -8 20 -11 19 C-12.5059043 15.98819141 -12.45552 12.80958132 -12.6875 9.5 C-12.74744141 8.81035156 -12.80738281 8.12070312 -12.86914062 7.41015625 C-12.99716556 5.61079212 -13.00620609 3.8039022 -13 2 C-9.55192297 -1.44807703 -4.50554126 -1.62199485 0 0 Z " fill="#ffffff" transform="translate(279,412)"/>
<path d="M0 0 C1.32 0.66 2.64 1.32 4 2 C3.835 2.78375 3.67 3.5675 3.5 4.375 C2.9376293 6.88208039 2.9376293 6.88208039 3 9 C4.78612311 10.80693756 4.78612311 10.80693756 7 12.625 C7.7425 13.25664062 8.485 13.88828125 9.25 14.5390625 C9.8275 15.02117187 10.405 15.50328125 11 16 C10.6875 17.9375 10.6875 17.9375 10 20 C9.01 20.33 8.02 20.66 7 21 C2.18715941 18.26543148 -1.87135515 14.66447768 -6 11 C-5.55530671 5.96014269 -3.28656638 3.62365012 0 0 Z " fill="#ffffff" transform="translate(390,341)"/>
<path d="M0 0 C0 4.29 0 8.58 0 13 C0.99 13 1.98 13 3 13 C3.33 13.99 3.66 14.98 4 16 C3.67 16.66 3.34 17.32 3 18 C0.93359375 18.4140625 0.93359375 18.4140625 -1.5625 18.625 C-2.38878906 18.69976562 -3.21507812 18.77453125 -4.06640625 18.8515625 C-5.02353516 18.92503906 -5.02353516 18.92503906 -6 19 C-6.93619813 15.84493858 -7.1057123 13.03413498 -7.0625 9.75 C-7.05347656 8.85796875 -7.04445313 7.9659375 -7.03515625 7.046875 C-7.02355469 6.37140625 -7.01195312 5.6959375 -7 5 C-7.99 5 -8.98 5 -10 5 C-10 3.35 -10 1.7 -10 0 C-5.97128525 -1.03595522 -4.34944269 -0.86988854 0 0 Z " fill="#ffffff" transform="translate(295,409)"/>
<path d="M0 0 C5.28 0 10.56 0 16 0 C16 0.33 16 0.66 16 1 C10.72 1 5.44 1 0 1 C0 0.67 0 0.34 0 0 Z " fill="#ffffff" transform="translate(240,469)"/>
<path d="M0 0 C2 1 2 1 2 1 Z " fill="#ffffff" transform="translate(392,131)"/>
<path d="M0 0 C2 1 2 1 2 1 Z " fill="#ffffff" transform="translate(212,73)"/>
<path d="" fill="#ffffff" transform="translate(0,0)"/>
</svg>
